<svg width="129" height="30" viewBox="0 0 129 30" fill="none" xmlns="http://www.w3.org/2000/svg">
<path d="M9.69899 26.3355V10.1355L11.241 8.3355V25.7025C12.1789 25.1615 12.9578 24.383 13.4992 23.4453C14.0406 22.5075 14.3254 21.4439 14.325 20.361V0L6.61499 9V26.535H8.15699C8.67736 26.534 9.1955 26.4669 9.69899 26.3355Z" fill="#C5A788"/>
<path d="M23.5784 28.0725V14.7795L15.8669 5.7795V20.358C15.865 22.4023 15.052 24.3624 13.6066 25.8081C12.1612 27.2538 10.2013 28.0671 8.1569 28.0695H3.1499V30H18.9524V14.121L20.4944 15.921V30H26.8499V28.0725H23.5784Z" fill="#C5A788"/>
<path d="M85.9333 20.536V9.336H87.5333V20.536H85.9333Z" fill="#0D1C29"/>
<path d="M73.8083 20.536V9.336H78.1763C79.1577 9.336 79.995 9.49067 80.6884 9.8C81.3817 10.1093 81.915 10.5573 82.2883 11.144C82.6617 11.7307 82.8484 12.4293 82.8484 13.24C82.8484 14.0507 82.6617 14.7493 82.2883 15.336C81.915 15.912 81.3817 16.3547 80.6884 16.664C79.995 16.9733 79.1577 17.128 78.1763 17.128H74.6884L75.4083 16.392V20.536H73.8083ZM81.2963 20.536L78.4483 16.472H80.1604L83.0404 20.536H81.2963ZM75.4083 16.552L74.6884 15.768H78.1283C79.1523 15.768 79.9257 15.5493 80.4483 15.112C80.9817 14.664 81.2484 14.04 81.2484 13.24C81.2484 12.44 80.9817 11.8213 80.4483 11.384C79.9257 10.9467 79.1523 10.728 78.1283 10.728H74.6884L75.4083 9.928V16.552Z" fill="#0D1C29"/>
<path d="M61.6833 20.536V9.336H66.0513C67.0327 9.336 67.87 9.49067 68.5634 9.8C69.2567 10.1093 69.79 10.5573 70.1633 11.144C70.5367 11.7307 70.7234 12.4293 70.7234 13.24C70.7234 14.0507 70.5367 14.7493 70.1633 15.336C69.79 15.912 69.2567 16.3547 68.5634 16.664C67.87 16.9733 67.0327 17.128 66.0513 17.128H62.5633L63.2833 16.392V20.536H61.6833ZM69.1713 20.536L66.3233 16.472H68.0354L70.9154 20.536H69.1713ZM63.2833 16.552L62.5633 15.768H66.0033C67.0273 15.768 67.8007 15.5493 68.3233 15.112C68.8567 14.664 69.1234 14.04 69.1234 13.24C69.1234 12.44 68.8567 11.8213 68.3233 11.384C67.8007 10.9467 67.0273 10.728 66.0033 10.728H62.5633L63.2833 9.928V16.552Z" fill="#0D1C29"/>
<path d="M53.1672 20.664C51.6952 20.664 50.5378 20.2427 49.6952 19.4C48.8525 18.5573 48.4312 17.3253 48.4312 15.704V9.336H50.0312V15.64C50.0312 16.888 50.3032 17.8 50.8472 18.376C51.4018 18.952 52.1805 19.24 53.1832 19.24C54.1965 19.24 54.9752 18.952 55.5192 18.376C56.0738 17.8 56.3512 16.888 56.3512 15.64V9.336H57.9032V15.704C57.9032 17.3253 57.4818 18.5573 56.6392 19.4C55.8072 20.2427 54.6498 20.664 53.1672 20.664Z" fill="#0D1C29"/>
<path d="M41.264 20.664C40.6027 20.664 39.984 20.5253 39.408 20.248C38.832 19.9707 38.3627 19.5707 38 19.048L38.928 17.96C39.2373 18.3867 39.584 18.7173 39.968 18.952C40.3627 19.176 40.7947 19.288 41.264 19.288C42.544 19.288 43.184 18.5307 43.184 17.016V10.728H39.136V9.336H44.768V16.936C44.768 18.184 44.4693 19.1173 43.872 19.736C43.2853 20.3547 42.416 20.664 41.264 20.664Z" fill="#0D1C29"/>
<path d="M115.734 20.6L111.99 9.4H113.638L117.078 19.736H116.246L119.814 9.4H121.286L124.774 19.736H123.974L127.462 9.4H128.982L125.238 20.6H123.558L120.294 11.016H120.726L117.446 20.6H115.734Z" fill="#C5A788"/>
<path d="M99.8374 20.6L104.909 9.4H106.493L111.581 20.6H109.901L105.373 10.296H106.013L101.485 20.6H99.8374ZM101.997 17.8L102.429 16.52H108.733L109.197 17.8H101.997Z" fill="#C5A788"/>
<path d="M91.5334 20.6V9.4H93.1334V19.208H99.1974V20.6H91.5334Z" fill="#C5A788"/>
</svg>
