<svg width="90" height="26" viewBox="0 0 90 26" fill="none" xmlns="http://www.w3.org/2000/svg">
<path d="M5.45757 21.9462V8.44625L6.74258 6.94625V21.4187C7.52416 20.9679 8.17325 20.3192 8.62441 19.5377C9.07558 18.7562 9.31291 17.8699 9.31258 16.9675V0L2.88757 7.5V22.1125H4.17257C4.60621 22.1117 5.038 22.0557 5.45757 21.9462Z" fill="#C5A788"/>
<path d="M17.0237 23.3937V12.3162L10.5975 4.81622V16.965C10.5959 18.6686 9.91841 20.302 8.71391 21.5067C7.50941 22.7115 5.87616 23.3892 4.1725 23.3912H0V25H13.1687V11.7675L14.4537 13.2675V25H19.75V23.3937H17.0237Z" fill="#C5A788"/>
<path d="M28.05 15V8H28.87L32.01 13.29H31.57L34.67 8H35.49L35.5 15H34.54L34.53 9.51H34.76L32 14.15H31.54L28.76 9.51H29.01V15H28.05ZM38.5108 11.02H42.1108V11.87H38.5108V11.02ZM38.6008 14.13H42.6808V15H37.6008V8H42.5408V8.87H38.6008V14.13ZM44.3 15V8H45.12L49.75 13.75H49.32V8H50.32V15H49.5L44.87 9.25H45.3V15H44.3ZM52.4152 15V8H55.3652C56.1119 8 56.7686 8.14667 57.3352 8.44C57.9086 8.73333 58.3519 9.14333 58.6652 9.67C58.9852 10.1967 59.1452 10.8067 59.1452 11.5C59.1452 12.1933 58.9852 12.8033 58.6652 13.33C58.3519 13.8567 57.9086 14.2667 57.3352 14.56C56.7686 14.8533 56.1119 15 55.3652 15H52.4152ZM53.4152 14.13H55.3052C55.8852 14.13 56.3852 14.02 56.8052 13.8C57.2319 13.58 57.5619 13.2733 57.7952 12.88C58.0286 12.48 58.1452 12.02 58.1452 11.5C58.1452 10.9733 58.0286 10.5133 57.7952 10.12C57.5619 9.72667 57.2319 9.42 56.8052 9.2C56.3852 8.98 55.8852 8.87 55.3052 8.87H53.4152V14.13ZM61.587 11.02H65.187V11.87H61.587V11.02ZM61.677 14.13H65.757V15H60.677V8H65.617V8.87H61.677V14.13ZM69.4162 15.08C68.8828 15.08 68.3728 15 67.8862 14.84C67.3995 14.6733 67.0162 14.46 66.7362 14.2L67.1062 13.42C67.3728 13.6533 67.7128 13.8467 68.1262 14C68.5395 14.1533 68.9695 14.23 69.4162 14.23C69.8228 14.23 70.1528 14.1833 70.4062 14.09C70.6595 13.9967 70.8462 13.87 70.9662 13.71C71.0862 13.5433 71.1462 13.3567 71.1462 13.15C71.1462 12.91 71.0662 12.7167 70.9062 12.57C70.7528 12.4233 70.5495 12.3067 70.2962 12.22C70.0495 12.1267 69.7762 12.0467 69.4762 11.98C69.1762 11.9133 68.8728 11.8367 68.5662 11.75C68.2662 11.6567 67.9895 11.54 67.7362 11.4C67.4895 11.26 67.2895 11.0733 67.1362 10.84C66.9828 10.6 66.9062 10.2933 66.9062 9.92C66.9062 9.56 66.9995 9.23 67.1862 8.93C67.3795 8.62333 67.6728 8.38 68.0662 8.2C68.4662 8.01333 68.9728 7.92 69.5862 7.92C69.9928 7.92 70.3962 7.97333 70.7962 8.08C71.1962 8.18667 71.5428 8.34 71.8362 8.54L71.5062 9.34C71.2062 9.14 70.8895 8.99667 70.5562 8.91C70.2228 8.81667 69.8995 8.77 69.5862 8.77C69.1928 8.77 68.8695 8.82 68.6162 8.92C68.3628 9.02 68.1762 9.15333 68.0562 9.32C67.9428 9.48667 67.8862 9.67333 67.8862 9.88C67.8862 10.1267 67.9628 10.3233 68.1162 10.47C68.2762 10.6167 68.4795 10.7333 68.7262 10.82C68.9795 10.9067 69.2562 10.9867 69.5562 11.06C69.8562 11.1267 70.1562 11.2033 70.4562 11.29C70.7628 11.3767 71.0395 11.49 71.2862 11.63C71.5395 11.77 71.7428 11.9567 71.8962 12.19C72.0495 12.4233 72.1262 12.7233 72.1262 13.09C72.1262 13.4433 72.0295 13.7733 71.8362 14.08C71.6428 14.38 71.3428 14.6233 70.9362 14.81C70.5362 14.99 70.0295 15.08 69.4162 15.08Z" fill="black"/>
<path d="M26.99 25L30.16 18H31.15L34.33 25H33.28L30.45 18.56H30.85L28.02 25H26.99ZM28.34 23.25L28.61 22.45H32.55L32.84 23.25H28.34ZM35.3742 25V18H38.3242C39.0709 18 39.7276 18.1467 40.2942 18.44C40.8676 18.7333 41.3109 19.1433 41.6242 19.67C41.9442 20.1967 42.1042 20.8067 42.1042 21.5C42.1042 22.1933 41.9442 22.8033 41.6242 23.33C41.3109 23.8567 40.8676 24.2667 40.2942 24.56C39.7276 24.8533 39.0709 25 38.3242 25H35.3742ZM36.3742 24.13H38.2642C38.8442 24.13 39.3442 24.02 39.7642 23.8C40.1909 23.58 40.5209 23.2733 40.7542 22.88C40.9876 22.48 41.1042 22.02 41.1042 21.5C41.1042 20.9733 40.9876 20.5133 40.7542 20.12C40.5209 19.7267 40.1909 19.42 39.7642 19.2C39.3442 18.98 38.8442 18.87 38.2642 18.87H36.3742V24.13ZM45.4411 25L42.3611 18H43.4411L46.2711 24.46H45.6511L48.5011 18H49.5011L46.4311 25H45.4411ZM53.4854 25.08C52.9521 25.08 52.4554 24.99 51.9954 24.81C51.5421 24.63 51.1487 24.38 50.8154 24.06C50.4821 23.7333 50.2221 23.3533 50.0354 22.92C49.8487 22.4867 49.7554 22.0133 49.7554 21.5C49.7554 20.9867 49.8487 20.5133 50.0354 20.08C50.2221 19.6467 50.4821 19.27 50.8154 18.95C51.1487 18.6233 51.5421 18.37 51.9954 18.19C52.4487 18.01 52.9454 17.92 53.4854 17.92C54.0187 17.92 54.5087 18.01 54.9554 18.19C55.4087 18.3633 55.8021 18.6133 56.1354 18.94C56.4754 19.26 56.7354 19.6367 56.9154 20.07C57.1021 20.5033 57.1954 20.98 57.1954 21.5C57.1954 22.02 57.1021 22.4967 56.9154 22.93C56.7354 23.3633 56.4754 23.7433 56.1354 24.07C55.8021 24.39 55.4087 24.64 54.9554 24.82C54.5087 24.9933 54.0187 25.08 53.4854 25.08ZM53.4854 24.19C53.8721 24.19 54.2287 24.1233 54.5554 23.99C54.8887 23.8567 55.1754 23.67 55.4154 23.43C55.6621 23.1833 55.8521 22.8967 55.9854 22.57C56.1254 22.2433 56.1954 21.8867 56.1954 21.5C56.1954 21.1133 56.1254 20.7567 55.9854 20.43C55.8521 20.1033 55.6621 19.82 55.4154 19.58C55.1754 19.3333 54.8887 19.1433 54.5554 19.01C54.2287 18.8767 53.8721 18.81 53.4854 18.81C53.0921 18.81 52.7287 18.8767 52.3954 19.01C52.0687 19.1433 51.7821 19.3333 51.5354 19.58C51.2887 19.82 51.0954 20.1033 50.9554 20.43C50.8221 20.7567 50.7554 21.1133 50.7554 21.5C50.7554 21.8867 50.8221 22.2433 50.9554 22.57C51.0954 22.8967 51.2887 23.1833 51.5354 23.43C51.7821 23.67 52.0687 23.8567 52.3954 23.99C52.7287 24.1233 53.0921 24.19 53.4854 24.19ZM61.8538 25.08C61.3205 25.08 60.8272 24.9933 60.3738 24.82C59.9272 24.64 59.5372 24.39 59.2038 24.07C58.8772 23.7433 58.6205 23.3633 58.4338 22.93C58.2472 22.4967 58.1538 22.02 58.1538 21.5C58.1538 20.98 58.2472 20.5033 58.4338 20.07C58.6205 19.6367 58.8805 19.26 59.2138 18.94C59.5472 18.6133 59.9372 18.3633 60.3838 18.19C60.8372 18.01 61.3305 17.92 61.8638 17.92C62.4038 17.92 62.9005 18.0133 63.3538 18.2C63.8138 18.38 64.2038 18.65 64.5238 19.01L63.8738 19.64C63.6072 19.36 63.3072 19.1533 62.9738 19.02C62.6405 18.88 62.2838 18.81 61.9038 18.81C61.5105 18.81 61.1438 18.8767 60.8038 19.01C60.4705 19.1433 60.1805 19.33 59.9338 19.57C59.6872 19.81 59.4938 20.0967 59.3538 20.43C59.2205 20.7567 59.1538 21.1133 59.1538 21.5C59.1538 21.8867 59.2205 22.2467 59.3538 22.58C59.4938 22.9067 59.6872 23.19 59.9338 23.43C60.1805 23.67 60.4705 23.8567 60.8038 23.99C61.1438 24.1233 61.5105 24.19 61.9038 24.19C62.2838 24.19 62.6405 24.1233 62.9738 23.99C63.3072 23.85 63.6072 23.6367 63.8738 23.35L64.5238 23.98C64.2038 24.34 63.8138 24.6133 63.3538 24.8C62.9005 24.9867 62.4005 25.08 61.8538 25.08ZM64.7244 25L67.8944 18H68.8844L72.0644 25H71.0144L68.1844 18.56H68.5844L65.7544 25H64.7244ZM66.0744 23.25L66.3444 22.45H70.2844L70.5744 23.25H66.0744ZM76.1409 25.08C75.6076 25.08 75.1143 24.9933 74.6609 24.82C74.2143 24.64 73.8243 24.39 73.4909 24.07C73.1643 23.7433 72.9076 23.3633 72.7209 22.93C72.5343 22.4967 72.4409 22.02 72.4409 21.5C72.4409 20.98 72.5343 20.5033 72.7209 20.07C72.9076 19.6367 73.1676 19.26 73.5009 18.94C73.8343 18.6133 74.2243 18.3633 74.6709 18.19C75.1243 18.01 75.6176 17.92 76.1509 17.92C76.6909 17.92 77.1876 18.0133 77.6409 18.2C78.1009 18.38 78.4909 18.65 78.8109 19.01L78.1609 19.64C77.8943 19.36 77.5943 19.1533 77.2609 19.02C76.9276 18.88 76.5709 18.81 76.1909 18.81C75.7976 18.81 75.4309 18.8767 75.0909 19.01C74.7576 19.1433 74.4676 19.33 74.2209 19.57C73.9743 19.81 73.7809 20.0967 73.6409 20.43C73.5076 20.7567 73.4409 21.1133 73.4409 21.5C73.4409 21.8867 73.5076 22.2467 73.6409 22.58C73.7809 22.9067 73.9743 23.19 74.2209 23.43C74.4676 23.67 74.7576 23.8567 75.0909 23.99C75.4309 24.1233 75.7976 24.19 76.1909 24.19C76.5709 24.19 76.9276 24.1233 77.2609 23.99C77.5943 23.85 77.8943 23.6367 78.1609 23.35L78.8109 23.98C78.4909 24.34 78.1009 24.6133 77.6409 24.8C77.1876 24.9867 76.6876 25.08 76.1409 25.08ZM80.2375 25V18H81.2375V25H80.2375ZM82.2732 25L85.4432 18H86.4332L89.6132 25H88.5632L85.7332 18.56H86.1332L83.3032 25H82.2732ZM83.6232 23.25L83.8932 22.45H87.8332L88.1232 23.25H83.6232Z" fill="#C5A788"/>
</svg>
