<svg width="287" height="342" viewBox="0 0 287 342" fill="none" xmlns="http://www.w3.org/2000/svg">
<path d="M48.833 46.835V293.953H70.5645C77.8977 293.939 85.1995 292.993 92.2949 291.142V62.8379L114.026 37.4707V282.221C127.244 274.596 138.221 263.625 145.851 250.41C153.48 237.194 157.494 222.205 157.488 206.944V0H287V127.238L179.219 1.44922V206.901C179.192 235.711 167.734 263.335 147.364 283.709C126.995 304.083 99.3738 315.544 70.5625 315.578H0V0H88.9551L48.833 46.835ZM244.433 144.371V342H222.702V119.004L244.433 144.371Z" fill="#262926"/>
<rect x="1.5" y="1.5" width="284" height="339" stroke="#262926" stroke-width="3"/>
</svg>
