<svg width="119" height="109" viewBox="0 0 119 109" fill="none" xmlns="http://www.w3.org/2000/svg">
<path d="M102.949 0H0C7.47209 1.66412 12.7302 8.32061 12.7302 15.8092V109C22.9697 98.7379 28.5046 85.1476 28.5046 70.7252V18.5827C28.5046 17.1959 29.6116 15.8092 31.2721 15.8092C32.6558 15.8092 34.0395 16.9186 34.0395 18.5827V87.9211C44.279 77.659 49.814 64.0687 49.814 49.6463V18.5827C49.814 17.1959 50.9209 15.8092 52.5814 15.8092C53.9651 15.8092 55.3488 16.9186 55.3488 18.5827V66.8422L69.186 52.9746C69.7395 52.4198 70.0163 51.8651 70.293 51.3104V51.0331C70.8465 50.201 70.8465 49.369 71.1232 48.2595C72.507 30.2315 87.4511 15.8092 105.993 15.8092H119L102.949 0Z" fill="#E5E7E9"/>
</svg>
